<?xml version="1.0" encoding="UTF-8" standalone="no"?><!-- Generator: Gravit.io --><svg xmlns="http://www.w3.org/2000/svg" xmlns:xlink="http://www.w3.org/1999/xlink" style="isolation:isolate" viewBox="55 258 89.844 37" width="89.844pt" height="37pt"><g><path d=" M 77 276 C 77 270.481 81.481 266 87 266 C 92.519 266 97 270.481 97 276 C 97 281.519 92.519 286 87 286 C 81.481 286 77 281.519 77 276 Z  M 81 276 C 81 272.689 83.689 270 87 270 C 90.311 270 93 272.689 93 276 C 93 279.311 90.311 282 87 282 C 83.689 282 81 279.311 81 276 Z " fill-rule="evenodd" fill="rgb(0,0,0)"/><path d=" M 55 276 C 55 270.481 59.481 266 65 266 C 70.519 266 75 270.481 75 276 C 75 281.519 70.519 286 65 286 C 59.481 286 55 281.519 55 276 Z  M 59 276 C 59 272.689 61.689 270 65 270 C 68.311 270 71 272.689 71 276 C 71 279.311 68.311 282 65 282 C 61.689 282 59 279.311 59 276 Z " fill-rule="evenodd" fill="rgb(0,0,0)"/><path d=" M 103 277.25 L 110 286 L 115 286 L 107 276 L 115 266 L 114 266 L 110 266 L 103 274.75 L 103 258 L 99 258 L 99 286 L 103 286 L 103 277.25 Z " fill-rule="evenodd" fill="rgb(0,0,0)"/><path d=" M 118.262 282.696 Q 118.306 285.931 118.262 258 L 123.017 258 Q 123.013 277.018 123.017 280 Q 123.02 282.982 125.337 282.485 L 125.267 287 Q 118.953 286.696 118.262 282.696 Z " fill="rgb(0,0,0)"/><path d=" M 134.427 278.074 L 140.156 265.96 L 144.844 265.96 L 131.041 295 L 129 295 L 126.421 295 L 131.61 284.03 L 125.705 265.781 L 130.58 265.781 L 134.427 278.074 Z " fill-rule="evenodd" fill="rgb(0,0,0)"/></g></svg>